<svg width="40" height="40" viewBox="0 0 40 40" fill="none" xmlns="http://www.w3.org/2000/svg">
<circle cx="19.5" cy="19.5" r="11.5" fill="#E7DCC9"/>
<path fill-rule="evenodd" clip-rule="evenodd" d="M20 -8.74228e-07C25.3043 -1.10609e-06 30.3914 2.10713 34.1421 5.85786C37.8929 9.60859 40 14.6957 40 20C40 25.3043 37.8929 30.3914 34.1421 34.1421C30.3914 37.8929 25.3043 40 20 40C14.6957 40 9.60859 37.8929 5.85786 34.1421C2.10714 30.3914 -6.42368e-07 25.3043 -8.74228e-07 20C-1.10609e-06 14.6957 2.10714 9.60859 5.85786 5.85786C9.60859 2.10714 14.6957 -6.42368e-07 20 -8.74228e-07ZM12.5 18.75C12.1685 18.75 11.6161 19.1161 11.6161 19.1161L11.25 20L11.6161 20.8839L12.5 21.25L24.4825 21.25L19.115 26.615C18.9988 26.7312 18.9066 26.8692 18.8437 27.021C18.7808 27.1729 18.7484 27.3356 18.7484 27.5C18.7484 27.6644 18.7808 27.8271 18.8437 27.979C18.9066 28.1308 18.9988 28.2688 19.115 28.385C19.2312 28.5012 19.3692 28.5934 19.521 28.6563C19.6729 28.7192 19.8356 28.7516 20 28.7516C20.1644 28.7516 20.3271 28.7192 20.479 28.6563C20.6308 28.5934 20.7688 28.5012 20.885 28.385L28.385 20.885C28.5014 20.7689 28.5938 20.6309 28.6568 20.4791C28.7198 20.3272 28.7522 20.1644 28.7522 20C28.7522 19.8356 28.7198 19.6728 28.6568 19.5209C28.5938 19.3691 28.5014 19.2311 28.385 19.115L20.885 11.615C20.6503 11.3803 20.3319 11.2484 20 11.2484C19.6681 11.2484 19.3497 11.3803 19.115 11.615C18.8803 11.8497 18.7484 12.1681 18.7484 12.5C18.7484 12.8319 18.8803 13.1503 19.115 13.385L24.4825 18.75L12.5 18.75Z" fill="#B4745E"/>
</svg>
