<svg width="1500" height="800" viewBox="0 0 1500 800" fill="none" xmlns="http://www.w3.org/2000/svg">
<path d="M1.40111 222.155C-61.4236 769.588 1034.07 714.29 24.9084 921.746C-984.255 1129.2 -188.693 389.631 -634.974 480.701C-1081.25 571.771 -983.404 642.064 -735.126 -53.5266C-486.847 -749.117 64.7141 -325.931 1.40111 222.155Z" stroke="#E7DCC9" stroke-miterlimit="10"/>
<path d="M-629.123 472.864C-1063.95 563.968 -969.438 632.405 -722.738 -44.8071C-476.038 -722.02 50.2053 -327.326 -14.2762 218.718C-78.7577 764.763 977.059 714.655 7.48476 912.979C-962.09 1111.3 -193.226 382.135 -629.123 472.864Z" stroke="#E7DCC9" stroke-miterlimit="10"/>
<path d="M-622.252 463.741C-1044.51 554.304 -955.329 622.184 -710.696 -35.9959C-466.064 -694.175 36.2257 -329.352 -29.0986 214.214C-94.423 757.781 920.084 715.041 -8.11063 904.102C-936.306 1093.16 -197.945 374.512 -622.252 463.741Z" stroke="#E7DCC9" stroke-miterlimit="10"/>
<path d="M-613.825 455.635C-1025.18 544.253 -941.028 612.089 -698.69 -27.2064C-456.351 -666.502 22.0487 -331.184 -45.4209 211.648C-112.891 754.479 862.62 715.11 -24.5211 895.343C-911.662 1075.58 -202.471 367.016 -613.825 455.635Z" stroke="#E7DCC9" stroke-miterlimit="10"/>
<path d="M-606.291 446.946C-1005.76 534.58 -927.847 601.265 -686.666 -18.4051C-445.486 -638.075 7.59597 -333.519 -60.5881 207.568C-128.772 748.655 806.502 714.765 -40.2648 885.725C-887.032 1056.69 -206.526 359.827 -606.291 446.946Z" stroke="#E7DCC9" stroke-miterlimit="10"/>
<path d="M-599.083 440.785C-985.862 526.344 -911.744 593.143 -673.474 -7.72211C-435.203 -608.587 -5.62172 -333.608 -76.1788 206.599C-146.736 746.805 749.573 717.602 -56.8219 879.289C-863.217 1040.98 -211.165 353.701 -599.083 440.785Z" stroke="#E7DCC9" stroke-miterlimit="10"/>
<path d="M-591.632 429.636C-967.019 514.864 -898.389 581.323 -662.249 -0.87606C-426.109 -583.075 -20.1912 -337.456 -92.406 201.365C-164.621 740.186 692.004 716.174 -73.7885 868.737C-839.581 1021.3 -216.246 344.409 -591.632 429.636Z" stroke="#E7DCC9" stroke-miterlimit="10"/>
<path d="M-584.332 420.796C-947.024 503.95 -884.079 571.237 -650.232 7.92195C-416.384 -555.393 -34.3589 -339.284 -107.906 197.718C-181.453 734.719 635.162 716.335 -90.1902 859.991C-815.542 1003.65 -220.761 336.92 -584.332 420.796Z" stroke="#E7DCC9" stroke-miterlimit="10"/>
<path d="M-576.776 412.127C-928.238 495.167 -869.969 561.025 -637.698 16.0886C-405.427 -528.848 -47.8468 -341.964 -123.052 193.656C-198.257 729.275 578.672 716.084 -106.595 849.951C-791.861 983.818 -225.249 329.453 -576.776 412.127Z" stroke="#E7DCC9" stroke-miterlimit="10"/>
<path d="M-569.447 403.635C-908.703 485.254 -856.15 550.625 -626.205 25.5222C-396.26 -499.581 -61.8881 -344.031 -139.24 190.86C-216.593 725.752 521.237 716.516 -123.068 842.138C-767.373 967.76 -230.028 321.797 -569.447 403.635Z" stroke="#E7DCC9" stroke-miterlimit="10"/>
<path d="M-562.137 394.8C-889.576 475.069 -840.694 541.286 -614.014 34.1097C-387.334 -473.067 -76.5363 -345.204 -154.214 187.88C-231.892 720.964 464.298 717.27 -138.781 833.843C-741.86 950.417 -234.697 314.531 -562.137 394.8Z" stroke="#E7DCC9" stroke-miterlimit="10"/>
<path d="M-554.589 386.13C-870.149 465.414 -827.276 530.63 -602.204 42.7804C-377.132 -445.069 -90.9748 -347.535 -170.994 183.729C-251.014 714.992 405.945 716.788 -156.334 825.333C-718.612 933.879 -239.192 307.063 -554.589 386.13Z" stroke="#E7DCC9" stroke-miterlimit="10"/>
<path d="M-546.646 376.413C-849.999 454.278 -812.226 519.085 -588.926 50.783C-365.626 -417.519 -104.764 -349.444 -186.053 180.371C-267.342 710.187 350.053 717.909 -171.772 815.279C-693.598 912.65 -243.945 299.42 -546.646 376.413Z" stroke="#E7DCC9" stroke-miterlimit="10"/>
<path d="M-539.955 368.801C-248.483 291.92 -670.455 895.715 -188.754 806.819C292.947 717.924 -284.692 705.373 -201.742 176.93C-118.793 -351.512 -356.57 -388.974 -577.744 60.662C-798.917 510.298 -831.427 445.681 -539.955 368.801Z" stroke="#E7DCC9" stroke-miterlimit="10"/>
<path d="M1531.12 -588.186C1323.38 -77.8191 2393.38 163.547 1365.61 91.9516C337.832 20.3561 1302.99 -478.006 848.654 -510.315C394.323 -542.625 469.664 -448.606 895.87 -1051.79C1322.08 -1654.98 1739.5 -1099.05 1531.12 -588.186Z" stroke="#E7DCC9" stroke-miterlimit="10"/>
<path d="M856.398 -516.29C413.092 -545.486 485.714 -454.152 905.456 -1040.06C1325.2 -1625.98 1725.9 -1104.3 1516.94 -595.713C1307.98 -87.1286 2338.37 148.566 1351.18 78.8213C363.994 9.07696 1300.63 -486.444 856.398 -516.29Z" stroke="#E7DCC9" stroke-miterlimit="10"/>
<path d="M865.469 -523.228C434.409 -549.567 502.052 -460.203 914.684 -1028.34C1327.32 -1596.48 1712.98 -1110.01 1503.88 -604.037C1294.77 -98.0663 2283.39 133.614 1338.55 66.0769C393.707 -1.46065 1298.14 -495.055 865.469 -523.228Z" stroke="#E7DCC9" stroke-miterlimit="10"/>
<path d="M875.765 -528.77C455.733 -554.048 518.54 -466.079 923.885 -1016.65C1329.23 -1567.21 1699.82 -1115.58 1488.85 -610.899C1277.87 -106.213 2228.03 118.226 1325.1 53.2274C422.172 -11.7714 1295.8 -503.493 875.765 -528.77Z" stroke="#E7DCC9" stroke-miterlimit="10"/>
<path d="M885.358 -535.112C477.035 -558.143 534.147 -472.96 933.098 -1004.93C1332.05 -1536.91 1686.53 -1121.72 1475.33 -618.907C1264.14 -116.093 2174.07 102.801 1312.52 39.7297C450.976 -23.3417 1293.82 -511.507 885.358 -535.112Z" stroke="#E7DCC9" stroke-miterlimit="10"/>
<path d="M893.958 -539.108C498.419 -560.723 551.841 -476.452 942.931 -991.097C1334.02 -1505.74 1673.82 -1125.36 1460.58 -624.034C1247.34 -122.707 2118.48 90.2224 1298.31 29.0778C478.138 -32.0667 1291 -518.655 893.958 -539.108Z" stroke="#E7DCC9" stroke-miterlimit="10"/>
<path d="M904.133 -547.842C519.655 -566.713 567.883 -484.245 951.901 -981.484C1335.92 -1478.72 1660.82 -1132.99 1446.36 -633.439C1231.89 -133.892 2063.41 73.3649 1284.8 14.3514C506.195 -44.662 1288.61 -528.971 904.133 -547.842Z" stroke="#E7DCC9" stroke-miterlimit="10"/>
<path d="M913.542 -554.393C541.849 -571.846 584.378 -490.11 961.109 -969.779C1337.84 -1449.45 1647.67 -1138.56 1432.41 -641.121C1217.15 -143.684 2008.62 58.2326 1271.36 1.51604C534.096 -55.2005 1286.27 -537.399 913.542 -554.393Z" stroke="#E7DCC9" stroke-miterlimit="10"/>
<path d="M923.151 -560.711C562.305 -575.254 600.715 -496.151 970.985 -958.542C1341.26 -1420.93 1635.4 -1144.77 1418.91 -649.106C1202.43 -153.447 1954.28 42.7977 1258.26 -12.5654C562.237 -67.9285 1283.96 -545.798 923.151 -560.711Z" stroke="#E7DCC9" stroke-miterlimit="10"/>
<path d="M932.493 -566.919C583.786 -579.548 616.821 -502.452 979.518 -946.365C1342.21 -1390.28 1622.43 -1150.53 1404.07 -656.152C1185.72 -161.772 1898.84 27.7675 1244.49 -24.521C590.142 -76.8096 1281.42 -554.456 932.493 -566.919Z" stroke="#E7DCC9" stroke-miterlimit="10"/>
<path d="M941.91 -573.462C604.947 -584.213 634.22 -507.289 988.95 -934.815C1343.68 -1362.34 1608.64 -1155.6 1390.45 -663.05C1172.27 -170.498 1843.8 13.1795 1231.59 -36.7359C619.379 -86.6513 1278.87 -562.71 941.91 -573.462Z" stroke="#E7DCC9" stroke-miterlimit="10"/>
<path d="M951.512 -579.783C626.255 -588.287 650.01 -513.944 997.993 -923.288C1345.98 -1332.63 1595.36 -1161.73 1375.41 -671.561C1155.46 -181.393 1787.73 -2.97836 1216.97 -49.6533C646.218 -96.3282 1276.55 -571.113 951.512 -579.783Z" stroke="#E7DCC9" stroke-miterlimit="10"/>
<path d="M961.775 -587.005C648.658 -593.595 667.61 -521.016 1008.63 -912.009C1349.65 -1303 1582.59 -1167.28 1361.81 -678.845C1141.02 -190.412 1733.59 -16.9298 1204.81 -63.4888C676.021 -110.048 1274.03 -579.752 961.775 -587.005Z" stroke="#E7DCC9" stroke-miterlimit="10"/>
<path d="M970.267 -592.538C1271.68 -588.196 702.865 -120.134 1190.73 -76.2042C1678.59 -32.2742 1125.61 -199.715 1347.62 -686.379C1569.64 -1173.04 1350.69 -1273.07 1016.74 -899.486C682.791 -525.9 668.858 -596.88 970.267 -592.538Z" stroke="#E7DCC9" stroke-miterlimit="10"/>
</svg>
