<svg width="590" height="2058" viewBox="0 0 590 2058" fill="none" xmlns="http://www.w3.org/2000/svg">
<path d="M104.73 1042.89C-151.731 1811.63 1442.44 2064.05 -73.5613 2056.76C-1589.56 2049.47 -219.77 1226.29 -889.984 1222.1C-1560.2 1217.9 -1440.62 1348.71 -872.197 422.966C-303.775 -502.778 362.093 273.359 104.73 1042.89Z" stroke="url(#paint0_linear)" stroke-miterlimit="10"/>
<path d="M-879.183 1212.59C-1532.91 1211.92 -1417.58 1339.04 -857.003 439.268C-296.427 -460.508 341.625 266.954 83.199 1033.2C-175.227 1799.44 1360.24 2047.3 -95.991 2038.86C-1552.22 2030.43 -224.024 1214.13 -879.183 1212.59Z" stroke="url(#paint1_linear)" stroke-miterlimit="10"/>
<path d="M-866.523 1201.55C-1502 1203.9 -1394.16 1328.61 -842.336 455.597C-290.508 -417.416 322.11 259.802 63.2219 1022.22C-195.666 1784.64 1278.08 2030.59 -115.755 2021.36C-1509.59 2012.13 -228.507 1201.73 -866.523 1201.55Z" stroke="url(#paint2_linear)" stroke-miterlimit="10"/>
<path d="M-851.931 1192.43C-1471.11 1195.3 -1370.51 1318.42 -827.714 471.884C-284.915 -374.649 302.252 252.87 40.4978 1013.58C-221.256 1774.29 1195.32 2013.27 -136.728 2003.78C-1468.77 1994.3 -232.751 1189.57 -851.931 1192.43Z" stroke="url(#paint3_linear)" stroke-miterlimit="10"/>
<path d="M-838.448 1182.21C-1440.22 1187.26 -1348.25 1306.84 -813.07 488.193C-277.89 -330.448 282.15 245.13 19.8956 1003.12C-242.358 1761.1 1114.62 1995.77 -156.481 1985.17C-1427.58 1974.58 -236.41 1178 -838.448 1182.21Z" stroke="url(#paint4_linear)" stroke-miterlimit="10"/>
<path d="M-826.201 1175.53C-1409.07 1181.44 -1322.6 1300.03 -797.314 507.565C-272.026 -284.899 263.144 240.996 -2.25941 996.995C-267.663 1752.99 1031.78 1982.6 -178.37 1970.89C-1388.52 1959.19 -241.232 1167.77 -826.201 1175.53Z" stroke="url(#paint5_linear)" stroke-miterlimit="10"/>
<path d="M-812.092 1161.75C-1378.45 1170.63 -1299.79 1287.06 -783.227 520.818C-266.667 -245.429 243.333 231.043 -24.0379 984.546C-291.409 1738.05 949.324 1963.1 -199.6 1950.57C-1348.53 1938.03 -245.73 1152.86 -812.092 1161.75Z" stroke="url(#paint6_linear)" stroke-miterlimit="10"/>
<path d="M-798.899 1151.24C-1346.35 1160.98 -1276.12 1276.89 -768.591 537.121C-261.059 -202.646 223.487 224.118 -45.25 974.6C-313.987 1725.08 867.429 1946.1 -220.565 1933.01C-1308.56 1919.91 -249.961 1140.72 -798.899 1151.24Z" stroke="url(#paint7_linear)" stroke-miterlimit="10"/>
<path d="M-785.391 1141.05C-1316.64 1154.04 -1252.71 1266.47 -753.02 552.671C-253.331 -161.126 204.879 216.175 -65.8273 964.164C-336.533 1712.15 786.166 1928.62 -241.141 1913.59C-1268.45 1898.56 -254.158 1128.61 -785.391 1141.05Z" stroke="url(#paint8_linear)" stroke-miterlimit="10"/>
<path d="M-772.263 1131.05C-1285.51 1145.69 -1229.66 1255.69 -739.332 569.73C-249.005 -116.231 185.287 208.945 -88.2892 955.236C-361.866 1701.53 703.334 1911.84 -262.492 1897.35C-1228.32 1882.87 -258.718 1116.15 -772.263 1131.05Z" stroke="url(#paint9_linear)" stroke-miterlimit="10"/>
<path d="M-759.058 1120.55C-1254.88 1136.83 -1204.57 1246.94 -724.383 585.782C-244.194 -75.3714 164.551 202.818 -108.946 946.409C-382.444 1690 621.119 1895.67 -282.602 1880.66C-1186.32 1865.65 -263.239 1104.28 -759.058 1120.55Z" stroke="url(#paint10_linear)" stroke-miterlimit="10"/>
<path d="M-745.561 1110.36C-1223.98 1128.83 -1182.02 1235.67 -710.006 601.839C-237.993 -31.9902 144.468 195.088 -131.849 935.35C-408.166 1675.61 537.242 1877.29 -305.296 1863.09C-1147.83 1848.89 -267.446 1092.17 -745.561 1110.36Z" stroke="url(#paint11_linear)" stroke-miterlimit="10"/>
<path d="M-731.178 1098.79C-1191.59 1118.91 -1156.85 1223.61 -693.314 617.379C-229.779 11.1435 125.192 188.161 -152.514 925.955C-430.22 1663.75 456.424 1861.97 -324.477 1843.94C-1105.38 1825.92 -271.972 1079.73 -731.178 1098.79Z" stroke="url(#paint12_linear)" stroke-miterlimit="10"/>
<path d="M-719.235 1089.86C-276.232 1067.56 -1066.92 1808.57 -346.363 1826.62C374.193 1844.68 -453.742 1651.56 -174.062 916.248C105.618 180.933 -225.396 54.9648 -680.208 634.984C-1135.02 1215 -1162.24 1112.16 -719.235 1089.86Z" stroke="url(#paint13_linear)" stroke-miterlimit="10"/>
<defs>
<linearGradient id="paint0_linear" x1="-378.766" y1="1.00003" x2="155" y2="1854.5" gradientUnits="userSpaceOnUse">
<stop stop-color="#E7DCC9"/>
<stop offset="1" stop-color="#B8816A"/>
</linearGradient>
<linearGradient id="paint1_linear" x1="-378.766" y1="1.00003" x2="155" y2="1854.5" gradientUnits="userSpaceOnUse">
<stop stop-color="#E7DCC9"/>
<stop offset="1" stop-color="#B8816A"/>
</linearGradient>
<linearGradient id="paint2_linear" x1="-378.766" y1="1.00003" x2="155" y2="1854.5" gradientUnits="userSpaceOnUse">
<stop stop-color="#E7DCC9"/>
<stop offset="1" stop-color="#B8816A"/>
</linearGradient>
<linearGradient id="paint3_linear" x1="-378.766" y1="1.00003" x2="155" y2="1854.5" gradientUnits="userSpaceOnUse">
<stop stop-color="#E7DCC9"/>
<stop offset="1" stop-color="#B8816A"/>
</linearGradient>
<linearGradient id="paint4_linear" x1="-378.766" y1="1.00003" x2="155" y2="1854.5" gradientUnits="userSpaceOnUse">
<stop stop-color="#E7DCC9"/>
<stop offset="1" stop-color="#B8816A"/>
</linearGradient>
<linearGradient id="paint5_linear" x1="-378.766" y1="1.00003" x2="155" y2="1854.5" gradientUnits="userSpaceOnUse">
<stop stop-color="#E7DCC9"/>
<stop offset="1" stop-color="#B8816A"/>
</linearGradient>
<linearGradient id="paint6_linear" x1="-378.766" y1="1.00003" x2="155" y2="1854.5" gradientUnits="userSpaceOnUse">
<stop stop-color="#E7DCC9"/>
<stop offset="1" stop-color="#B8816A"/>
</linearGradient>
<linearGradient id="paint7_linear" x1="-378.766" y1="1.00003" x2="155" y2="1854.5" gradientUnits="userSpaceOnUse">
<stop stop-color="#E7DCC9"/>
<stop offset="1" stop-color="#B8816A"/>
</linearGradient>
<linearGradient id="paint8_linear" x1="-378.766" y1="1.00003" x2="155" y2="1854.5" gradientUnits="userSpaceOnUse">
<stop stop-color="#E7DCC9"/>
<stop offset="1" stop-color="#B8816A"/>
</linearGradient>
<linearGradient id="paint9_linear" x1="-378.766" y1="1.00003" x2="155" y2="1854.5" gradientUnits="userSpaceOnUse">
<stop stop-color="#E7DCC9"/>
<stop offset="1" stop-color="#B8816A"/>
</linearGradient>
<linearGradient id="paint10_linear" x1="-378.766" y1="1.00003" x2="155" y2="1854.5" gradientUnits="userSpaceOnUse">
<stop stop-color="#E7DCC9"/>
<stop offset="1" stop-color="#B8816A"/>
</linearGradient>
<linearGradient id="paint11_linear" x1="-378.766" y1="1.00003" x2="155" y2="1854.5" gradientUnits="userSpaceOnUse">
<stop stop-color="#E7DCC9"/>
<stop offset="1" stop-color="#B8816A"/>
</linearGradient>
<linearGradient id="paint12_linear" x1="-378.766" y1="1.00003" x2="155" y2="1854.5" gradientUnits="userSpaceOnUse">
<stop stop-color="#E7DCC9"/>
<stop offset="1" stop-color="#B8816A"/>
</linearGradient>
<linearGradient id="paint13_linear" x1="-378.766" y1="1.00003" x2="155" y2="1854.5" gradientUnits="userSpaceOnUse">
<stop stop-color="#E7DCC9"/>
<stop offset="1" stop-color="#B8816A"/>
</linearGradient>
</defs>
</svg>
