<svg width="16" height="16" viewBox="0 0 16 16" fill="none" xmlns="http://www.w3.org/2000/svg">
<path fill-rule="evenodd" clip-rule="evenodd" d="M2 1C1.73478 1 1.48043 1.10536 1.29289 1.29289C1.10536 1.48043 0.999999 1.73478 0.999999 2L1 14C1 14.2652 1.10536 14.5196 1.29289 14.7071C1.48043 14.8946 1.73478 15 2 15L14 15C14.2652 15 14.5196 14.8946 14.7071 14.7071C14.8946 14.5196 15 14.2652 15 14L15 2C15 1.73478 14.8946 1.48043 14.7071 1.29289C14.5196 1.10536 14.2652 0.999999 14 0.999999L2 1ZM2 16C1.46957 16 0.960859 15.7893 0.585786 15.4142C0.210714 15.0391 -6.42368e-08 14.5304 -8.74228e-08 14L-6.11959e-07 2C-6.35145e-07 1.46957 0.210713 0.960859 0.585786 0.585787C0.960858 0.210714 1.46957 -6.42368e-08 2 -8.74228e-08L14 -6.11959e-07C14.5304 -6.35145e-07 15.0391 0.210714 15.4142 0.585786C15.7893 0.960859 16 1.46957 16 2L16 14C16 14.5304 15.7893 15.0391 15.4142 15.4142C15.0391 15.7893 14.5304 16 14 16L2 16ZM4.5 7.5C4.36739 7.5 4.24021 7.55268 4.14645 7.64645C4.05268 7.74021 4 7.86739 4 8C4 8.13261 4.05268 8.25978 4.14645 8.35355C4.24021 8.44732 4.36739 8.5 4.5 8.5L10.293 8.5L8.146 10.646C8.05211 10.7399 7.99937 10.8672 7.99937 11C7.99937 11.1328 8.05211 11.2601 8.146 11.354C8.23989 11.4479 8.36722 11.5006 8.5 11.5006C8.63278 11.5006 8.76011 11.4479 8.854 11.354L11.854 8.354C11.9006 8.30755 11.9375 8.25238 11.9627 8.19163C11.9879 8.13089 12.0009 8.06577 12.0009 8C12.0009 7.93423 11.9879 7.86911 11.9627 7.80837C11.9375 7.74762 11.9006 7.69245 11.854 7.646L8.854 4.646C8.76011 4.55211 8.63277 4.49937 8.5 4.49937C8.36722 4.49937 8.23989 4.55211 8.146 4.646C8.05211 4.73989 7.99937 4.86722 7.99937 5C7.99937 5.13277 8.05211 5.26011 8.146 5.354L10.293 7.5L4.5 7.5Z" fill="#E7DCC9"/>
</svg>
