<svg width="16" height="16" viewBox="0 0 16 16" fill="none" xmlns="http://www.w3.org/2000/svg">
<path fill-rule="evenodd" clip-rule="evenodd" d="M14 15C14.2652 15 14.5196 14.8946 14.7071 14.7071C14.8946 14.5196 15 14.2652 15 14L15 2C15 1.73478 14.8946 1.48043 14.7071 1.29289C14.5196 1.10536 14.2652 1 14 1L2 1C1.73478 1 1.48043 1.10536 1.29289 1.29289C1.10536 1.48043 1 1.73478 1 2L1 14C1 14.2652 1.10536 14.5196 1.29289 14.7071C1.48043 14.8946 1.73478 15 2 15L14 15ZM14 2.38498e-08C14.5304 1.75244e-08 15.0391 0.210714 15.4142 0.585786C15.7893 0.960859 16 1.46957 16 2L16 14C16 14.5304 15.7893 15.0391 15.4142 15.4142C15.0391 15.7893 14.5304 16 14 16L2 16C1.46957 16 0.960859 15.7893 0.585787 15.4142C0.210715 15.0391 1.73274e-07 14.5304 1.66948e-07 14L2.38498e-08 2C1.75244e-08 1.46957 0.210714 0.960859 0.585787 0.585787C0.960859 0.210714 1.46957 1.73274e-07 2 1.66948e-07L14 2.38498e-08ZM11.5 8.5C11.6326 8.5 11.7598 8.44732 11.8536 8.35355C11.9473 8.25979 12 8.13261 12 8C12 7.86739 11.9473 7.74021 11.8536 7.64645C11.7598 7.55268 11.6326 7.5 11.5 7.5L5.707 7.5L7.854 5.354C7.94789 5.26011 8.00063 5.13278 8.00063 5C8.00063 4.86722 7.94789 4.73989 7.854 4.646C7.76011 4.55211 7.63278 4.49937 7.5 4.49937C7.36722 4.49937 7.23989 4.55211 7.146 4.646L4.146 7.646C4.09944 7.69245 4.06249 7.74762 4.03729 7.80837C4.01208 7.86911 3.99911 7.93423 3.99911 8C3.99911 8.06577 4.01208 8.13089 4.03729 8.19163C4.06249 8.25238 4.09944 8.30755 4.146 8.354L7.146 11.354C7.23989 11.4479 7.36722 11.5006 7.5 11.5006C7.63278 11.5006 7.76011 11.4479 7.854 11.354C7.94789 11.2601 8.00063 11.1328 8.00063 11C8.00063 10.8672 7.94789 10.7399 7.854 10.646L5.707 8.5L11.5 8.5Z" fill="#E7DCC9"/>
</svg>
