<svg width="28" height="28" viewBox="0 0 28 28" fill="none" xmlns="http://www.w3.org/2000/svg">
<path d="M23.1996 9.08341H20.593C20.0591 7.36965 19.252 5.75287 18.2025 4.29564L18.1614 4.23856L18.0965 4.21129C17.3965 3.91695 16.6666 3.69942 15.9197 3.56251L15.1777 3.4265L15.6916 3.97874C17.0535 5.44201 18.0998 7.1683 18.7669 9.05008H14.8746V3.66675V3.41675H14.6246H13.3746H13.1246V3.66675V9.05841H9.23244C9.90097 7.17305 10.9501 5.44384 12.3158 3.97889L12.8291 3.42834L12.0884 3.56241C11.3447 3.69704 10.6177 3.91171 9.92007 4.20268L9.85527 4.22971L9.81401 4.28653C8.76025 5.7378 7.94763 7.34916 7.4071 9.05841H4.78298H4.62906L4.55975 9.19584C4.33316 9.64516 4.13917 10.1102 3.97927 10.5873L3.86886 10.9167H4.21631H6.93504C6.73737 11.9322 6.63619 12.9643 6.63297 13.9993L6.63298 14.0006C6.63512 15.1404 6.75437 16.2768 6.98868 17.3917H4.34964H3.99089L4.11511 17.7283C4.2917 18.2068 4.50281 18.6718 4.74676 19.1197L4.8178 19.2501H4.96631H7.47648C7.99326 20.8069 8.74149 22.2775 9.69631 23.6122L9.73693 23.669L9.8011 23.6965C10.5165 24.0033 11.2638 24.2295 12.0292 24.3709L12.7635 24.5066L12.2589 23.9561C11.0016 22.5847 10.0173 20.9874 9.35736 19.2501H13.133V24.2834V24.5334H13.383H14.633H14.883V24.2834V19.2501H18.6416C17.9795 20.988 16.9925 22.5852 15.7323 23.9559L15.2211 24.5118L15.963 24.3707C16.7321 24.2244 17.4823 23.9925 18.1997 23.6792L18.2627 23.6517L18.3028 23.5957C19.2561 22.2661 20.0042 20.8012 20.5224 19.2501H23.008H23.1555L23.2268 19.121C23.4696 18.6814 23.6807 18.2249 23.8585 17.7552L23.9865 17.4167H23.6246H20.9802C21.2263 16.2953 21.3557 15.1511 21.3663 14.0024L21.3663 13.9993C21.3631 12.9643 21.2619 11.9322 21.0642 10.9167H23.758H24.1064L23.9948 10.5867C23.8365 10.1185 23.6454 9.66209 23.4229 9.22083L23.3535 9.08341H23.1996ZM19.583 13.9986L19.583 14.0015C19.5893 15.1423 19.4641 16.2799 19.21 17.3917H14.8746V10.9167H19.2804C19.4878 11.9306 19.5892 12.9634 19.583 13.9986ZM13.1246 17.3917H8.78674C8.27129 15.2584 8.24716 13.0358 8.71613 10.8917H13.1246V17.3917Z" fill="white" stroke="white" stroke-width="0.5"/>
<path d="M13.9998 0.416748C11.3133 0.416748 8.68712 1.2134 6.45335 2.70595C4.21958 4.19851 2.47857 6.31994 1.45048 8.80196C0.422389 11.284 0.153394 14.0152 0.67751 16.6501C1.20163 19.285 2.49531 21.7053 4.39498 23.6049C6.29464 25.5046 8.71496 26.7983 11.3499 27.3224C13.9848 27.8465 16.7159 27.5775 19.198 26.5494C21.68 25.5214 23.8014 23.7803 25.294 21.5466C26.7865 19.3128 27.5832 16.6866 27.5832 14.0001C27.5832 10.3976 26.1521 6.94258 23.6047 4.39521C21.0573 1.84785 17.6024 0.416748 13.9998 0.416748ZM13.9998 25.4167C11.7418 25.4167 9.53454 24.7472 7.65708 23.4927C5.77962 22.2382 4.31632 20.4552 3.45222 18.3691C2.58812 16.2829 2.36203 13.9874 2.80254 11.7728C3.24306 9.55818 4.33039 7.52393 5.92704 5.92728C7.52369 4.33063 9.55795 3.2433 11.7726 2.80278C13.9872 2.36227 16.2827 2.58836 18.3688 3.45246C20.4549 4.31656 22.238 5.77986 23.4925 7.65732C24.7469 9.53478 25.4165 11.7421 25.4165 14.0001C25.4165 17.028 24.2137 19.9318 22.0726 22.0729C19.9316 24.2139 17.0277 25.4167 13.9998 25.4167Z" fill="white" stroke="white" stroke-width="0.5"/>
</svg>
